<svg id="Layer_1" data-name="Layer 1" xmlns="http://www.w3.org/2000/svg" viewBox="0 0 225.41 70.01"><defs><style>.cls-1{fill:none;stroke:#000;stroke-miterlimit:10;}</style></defs><path class="cls-1" d="M50.72,33.83c.34-1.63.54-2.79.82-3.94C54,19.73,59.77,12.52,70.33,10.41c11-2.2,19.78,2.42,22.69,11.91A12.48,12.48,0,0,1,73,35.76a6,6,0,0,1-2-7.32A5.4,5.4,0,0,1,76.15,25a5.31,5.31,0,0,1,5,3.59,21.82,21.82,0,0,1,.58,3.21c4-.52,5.93-3.12,5.19-7a10.08,10.08,0,0,0-8.75-8.08c-6.79-1-12.78,1.65-16.18,7.3a16.61,16.61,0,0,0,.88,18.2c6.6,9,19.7,11.35,29.47,5.17a37,37,0,0,0,6.24-5.27c3.14-3.2,4.09-3.54,9-2.16a3.16,3.16,0,0,1-.21,1.14C100.82,52,91.19,57.5,78.5,57.52c-11.27,0-20.78-4.34-28.69-12.21-2.91-2.89-5.5-6.11-8.37-9A119.55,119.55,0,0,0,31.66,27c-4.51-3.64-10-4.41-15.58-3.57-6.77,1-10.88,8.52-8,14.22,1.42,2.75,3.63,4.22,7.21,4.28-.45-1.16-.78-1.87-1-2.61-1.09-3.71.38-6.94,3.63-8A7.11,7.11,0,0,1,26.55,35c1.95,4.19-.07,9.59-4.45,11.9A15.21,15.21,0,0,1,5.59,44.71C1.1,40.58-.61,35.37,1.22,29.43,4.37,19.24,13,15.27,24.06,16.84c7.07,1,12.64,5,18,9.32C44.9,28.47,47.57,31,50.72,33.83Z" transform="translate(0 0)"/><path class="cls-1" d="M174.77,34c1.75-1.62,3-2.88,4.34-4,4-3.13,7.82-6.48,12.06-9.22a26.13,26.13,0,0,1,21.28-3.33C221.12,19.56,228.57,31.1,223,41c-3.81,6.68-12.91,9.48-19.68,5.82a9.52,9.52,0,0,1-4.85-10.38,7.07,7.07,0,0,1,8.4-5.43,7.59,7.59,0,0,1,.78.22,6.27,6.27,0,0,1,3.58,8.11,6.07,6.07,0,0,1-.34.73,13.86,13.86,0,0,0-.61,1.5,7.87,7.87,0,0,0,8.24-7.49,8.25,8.25,0,0,0-.24-2.32,11,11,0,0,0-9.08-8.43c-5.64-.7-11.06.13-15.55,3.8a80.9,80.9,0,0,0-9.42,9.09c-4.45,5.05-8.9,10.05-14.4,14-9.07,6.55-19.19,8.52-30,6.59-9.46-1.69-16.4-7.23-21.41-15.3a4.59,4.59,0,0,1-.42-1.14,4.7,4.7,0,0,1,.16-.68c3.32-.77,6.18-.85,8.89,2.38,5.66,6.74,13.08,9.73,22,8.42a20.94,20.94,0,0,0,13-7.32,16.42,16.42,0,0,0,1.86-18.82c-3.18-5.65-9.24-8.56-16-7.71a10,10,0,0,0-8.8,7c-1.49,4.16,0,6.88,4.76,8.45.13-.78.21-1.53.38-2.26.66-2.95,2.29-4.55,4.86-4.82a5.48,5.48,0,0,1,5.42,3,6,6,0,0,1-1,6.89c-6.23,5.89-15.32,4.92-19.53-1.92-3.37-5.47-2.27-12.65,2.72-17.72C141.86,9.9,148.44,9,155.29,10.4c10,2.07,15.84,8.68,18.45,18.35C174,30.21,174.29,31.71,174.77,34Z" transform="translate(0 0)"/><path class="cls-1" d="M105.28,6.71c1.23-3.62,3.14-6.08,7-6.21,4.33-.14,6.25,2.75,7.67,6.16,8.94-4.56,13.65-3.77,16.79,2.76-.27.23-.51.61-.85.72C129.28,12.34,124.26,16.66,120,22c-.86,1.06-1.73,2.12-2.68,3.11-3.29,3.44-6.19,3.46-9.48.09-.38-.39-.74-.81-1.08-1.23-5-6.11-10.31-11.76-18.22-13.88C89.9,3.28,96.08,2.06,105.28,6.71Z" transform="translate(0 0)"/><path class="cls-1" d="M120,63.29c-1.43,3.55-2.92,6.28-7.34,6.21-4.24-.07-6.1-2.38-7.43-6.11-4,2.39-7.95,4.21-12.46,2.36-2.2-.91-3.32-2.23-4.39-5.11a5.87,5.87,0,0,1,1.3-.83c6.53-2.07,11.3-6.46,15.52-11.61a37.08,37.08,0,0,1,3-3.39c3-3,5.82-2.93,8.89.11A39.52,39.52,0,0,1,119.78,48c4.31,5.25,9.14,9.78,15.83,11.87a5.5,5.5,0,0,1,1.29.84C133.9,67.35,128.05,68.3,120,63.29Z" transform="translate(0 0)"/><path class="cls-1" d="M112.37,29.86h13.1a15.19,15.19,0,0,1,2.86.14,4.3,4.3,0,0,1,3.76,4.19,4.21,4.21,0,0,1-3.81,4.11,25.34,25.34,0,0,1-4.08.26c-8.86,0-17.72,0-26.58-.2-2.91,0-4.56-1.79-4.55-4.19s1.7-4.17,4.56-4.25c4.91-.15,9.83,0,14.74,0Z" transform="translate(0 0)"/><path class="cls-1" d="M48.56,28.85c-4.82-3.69-8.36-7.22-10.07-12.19a7,7,0,0,1,2.94-8.59,7.21,7.21,0,0,1,9,1.27,8,8,0,0,1,1.91,3.95C53,18.65,51.05,23.41,48.56,28.85Z" transform="translate(0 0)"/><path class="cls-1" d="M177,28.71c-2.6-5.15-4.23-9.71-4-14.79a6.74,6.74,0,0,1,4.47-6.31,7,7,0,0,1,7.67,1.25,6.73,6.73,0,0,1,1.91,7.52C185.44,21.56,181.76,25.12,177,28.71Z" transform="translate(0 0)"/></svg>